<svg viewBox="0 0 400 400" xmlns="http://www.w3.org/2000/svg"><g><path d="M199.048 55.300 C 198.734 55.795,196.150 60.250,193.307 65.200 C 190.464 70.150,184.756 80.050,180.622 87.200 C 176.489 94.350,170.313 105.060,166.899 111.000 C 163.485 116.940,159.429 123.960,157.887 126.600 C 156.344 129.240,153.693 133.830,151.996 136.800 C 150.299 139.770,146.666 146.070,143.923 150.800 C 141.180 155.530,138.478 160.210,137.919 161.200 C 137.361 162.190,135.958 164.620,134.801 166.600 C 132.670 170.251,128.245 177.911,121.458 189.700 C 116.895 197.626,96.199 233.488,92.199 240.400 C 90.608 243.150,87.232 249.000,84.697 253.400 C 82.162 257.800,77.556 265.794,74.460 271.164 C 71.365 276.535,68.926 281.080,69.040 281.264 C 69.475 281.968,254.400 281.673,254.400 280.968 C 254.400 280.424,247.617 268.438,235.405 247.400 C 233.618 244.320,230.488 238.892,228.452 235.337 C 225.587 230.337,224.527 228.818,223.768 228.628 C 223.228 228.492,208.615 228.390,191.293 228.401 C 173.972 228.412,159.575 228.416,159.300 228.410 C 158.402 228.392,158.746 227.642,163.129 220.075 C 165.510 215.964,170.308 207.650,173.791 201.600 C 177.274 195.550,181.963 187.450,184.211 183.600 C 186.459 179.750,189.240 174.890,190.391 172.800 C 194.071 166.116,199.322 157.172,199.706 156.935 C 200.306 156.564,200.925 157.451,204.912 164.400 C 208.785 171.150,217.827 186.813,223.327 196.300 C 228.836 205.801,232.191 211.620,238.608 222.800 C 242.081 228.850,246.217 236.050,247.799 238.800 C 249.381 241.550,253.467 248.661,256.879 254.602 C 268.344 274.566,271.133 279.348,274.140 284.200 C 277.410 289.476,280.000 294.233,280.000 294.961 C 280.000 295.543,270.369 295.607,170.100 295.699 L 60.200 295.800 57.567 300.400 C 56.119 302.930,53.166 308.060,51.005 311.800 C 48.844 315.540,46.144 320.220,45.004 322.200 C 43.865 324.180,41.163 328.860,39.000 332.600 C 32.792 343.333,31.600 345.485,31.600 345.958 C 31.600 346.280,77.253 346.400,200.000 346.400 C 345.953 346.400,368.400 346.324,368.400 345.827 C 368.400 345.511,367.882 344.386,367.250 343.327 C 365.949 341.148,360.965 332.533,353.178 319.000 C 350.266 313.940,344.220 303.451,339.742 295.690 C 335.264 287.930,331.600 281.489,331.600 281.378 C 331.600 281.266,328.240 275.375,324.132 268.287 C 320.025 261.199,315.372 253.150,313.793 250.400 C 312.213 247.650,309.879 243.600,308.604 241.400 C 304.869 234.953,300.571 227.522,295.994 219.600 C 293.642 215.530,290.729 210.490,289.519 208.400 C 280.793 193.326,273.226 180.198,271.997 178.000 C 271.197 176.570,269.632 173.870,268.518 172.000 C 267.405 170.130,260.693 158.520,253.604 146.200 C 246.514 133.880,239.762 122.180,238.600 120.200 C 237.438 118.220,234.420 113.000,231.893 108.600 C 229.367 104.200,224.909 96.460,221.988 91.400 C 219.067 86.340,214.759 78.870,212.414 74.800 C 199.552 52.476,200.220 53.451,199.048 55.300" fill="hsla(187, 100%, 42%, 1)"></path></g></svg>